<svg width="428" height="60" viewBox="0 0 428 60" fill="none" xmlns="http://www.w3.org/2000/svg">
<g filter="url(#filter0_d_136_3986)">
<path d="M4.99609 49.9211L34.8539 1.05322M34.8539 2.13239L64.7117 51.0003M64.7117 49.9211L94.5696 1.05322M94.5696 2.13239L124.427 51.0003M124.427 49.9211L154.285 1.05322M154.285 2.13239L184.143 51.0003M184.143 49.9211L214.001 1.05322M214.001 2.13239L243.859 51.0003M243.859 49.9211L273.716 1.05322M273.716 2.13239L303.574 51.0003M303.574 49.9211L333.432 1.05322M333.432 2.13239L363.29 51.0003M363.29 49.9211L393.148 1.05322M393.148 2.13239L423.006 51.0003" stroke="black" stroke-width="2"/>
</g>
<defs>
<filter id="filter0_d_136_3986" x="0.142578" y="0.53186" width="427.717" height="58.9897" filterUnits="userSpaceOnUse" color-interpolation-filters="sRGB">
<feFlood flood-opacity="0" result="BackgroundImageFix"/>
<feColorMatrix in="SourceAlpha" type="matrix" values="0 0 0 0 0 0 0 0 0 0 0 0 0 0 0 0 0 0 127 0" result="hardAlpha"/>
<feOffset dy="4"/>
<feGaussianBlur stdDeviation="2"/>
<feComposite in2="hardAlpha" operator="out"/>
<feColorMatrix type="matrix" values="0 0 0 0 0 0 0 0 0 0 0 0 0 0 0 0 0 0 0.25 0"/>
<feBlend mode="normal" in2="BackgroundImageFix" result="effect1_dropShadow_136_3986"/>
<feBlend mode="normal" in="SourceGraphic" in2="effect1_dropShadow_136_3986" result="shape"/>
</filter>
</defs>
</svg>
